<svg xmlns="http://www.w3.org/2000/svg" viewBox="0 0 1519.82 1521.03"><defs><style>.cls-1{fill:#ea2a2e;}.cls-2{fill:#fff;}</style></defs><g id="Layer_2" data-name="Layer 2"><g id="Layer_1-2" data-name="Layer 1"><path class="cls-1" d="M768.86,0C341.14-3.53,6.52,342.51.1,747.75-6.68,1174.88,340.82,1523.83,761.38,1521c417.24,1,756.13-337.4,758.43-757.32C1522.07,346.23,1182.94,3.47,768.86,0Zm489.25,946.56q-74,0-148,0-71.67,0-143.37,0c-21.21,0-21.21,0-21.21,22q0,142.73,0,285.47c0,48.67-25.52,74.39-73.9,74.44q-113.33.1-226.65,0c-43.06,0-70.32-27.13-70.39-70.28-.15-98.23-.33-196.48.25-294.73.07-13.78-4-17.24-17.4-17.18-97.65.54-195.29.26-292.94.28-43.87,0-71.57-27-71.71-70.75q-.36-114.95,0-229.92c.14-44.18,27.42-70.82,71.58-70.82,97.14,0,194.27-.3,291.4.31,14.5.09,19.23-3.34,19.12-18.57-.69-96.18-.34-192.36-.34-288.56,0-49.38,25.58-75.07,74.87-75.09q111.78,0,223.55,0c46.2.07,72.52,26.51,72.54,72.75.08,96.69.42,193.4-.32,290.09-.13,15.9,4.46,19.57,19.88,19.43,96.61-.9,193.22-.9,289.84-.81,37.64,0,63.16,19.16,70.62,52.06a82.62,82.62,0,0,1,1.67,18.34q.16,115.73.09,231.46C1327.28,918.38,1299.56,946.58,1258.11,946.59Z"/><path class="cls-2" d="M1327.17,645.05a82.62,82.62,0,0,0-1.67-18.34c-7.46-32.9-33-52-70.62-52.06-96.62-.09-193.23-.09-289.84.81-15.42.14-20-3.53-19.88-19.43.74-96.69.4-193.4.32-290.09,0-46.24-26.34-72.68-72.54-72.75q-111.77-.16-223.55,0c-49.29,0-74.87,25.71-74.87,75.09,0,96.2-.35,192.38.34,288.56.11,15.23-4.62,18.66-19.12,18.57-97.13-.61-194.26-.28-291.4-.31-44.16,0-71.44,26.64-71.58,70.82q-.36,115,0,229.92c.14,43.8,27.84,70.75,71.71,70.75,97.65,0,195.29.26,292.94-.28,13.43-.06,17.47,3.4,17.4,17.18-.58,98.25-.4,196.5-.25,294.73.07,43.15,27.33,70.23,70.39,70.28q113.32.13,226.65,0c48.38,0,73.87-25.77,73.9-74.44q0-142.75,0-285.47c0-22,0-22,21.21-22q71.68,0,143.37,0,74,0,148,0c41.45,0,69.17-28.21,69.15-70.08Q1327.19,760.77,1327.17,645.05ZM881.93,806.5c-21.06-.1-42.12.41-63.17-.06-10.2-.23-13.49,3.84-13.27,13.68.45,20.54.37,41.12,0,61.67-.32,16.79-4.4,20.51-21.45,20.73-15.92.2-31.84.17-47.77,0-17.09-.2-21.6-4.71-21.8-22.25-.23-20-.33-40.11.07-60.14.2-9.83-3.42-13.83-13.5-13.61-20,.46-40.06.14-60.08-.06-18.39-.2-22.32-4.21-22.5-23-.15-16.45.07-32.9,0-49.35,0-12.76,6.25-18.87,18.93-18.87,20.53,0,41.1-.76,61.61,0,12.67.51,16-4.7,15.6-16.34-.65-19.52-.42-39.06-.11-58.59.25-16.4,5-21,21.32-21.16,16.94-.2,33.9.15,50.84-.08,12.94-.17,18.87,6.19,18.89,18.8,0,21.07.56,42.15,0,63.21-.31,10.92,3.78,14.79,14.4,14.12,10.22-.64,20.53-.13,30.81-.13v.15c10.78,0,21.57,0,32.34,0,12.73,0,18.73,6.38,18.6,19.14-.2,17.48-.25,35,0,52.43C901.82,800.46,895.28,806.57,881.93,806.5Z"/><path class="cls-1" d="M850.65,715.25c10.79,0,21.57,0,32.36,0,12.72,0,18.72,6.39,18.58,19.14-.19,17.48-.24,35,0,52.43.2,13.63-6.33,19.74-19.69,19.67-21.06-.1-42.13.42-63.17-.06-10.2-.23-13.49,3.84-13.27,13.67.45,20.55.37,41.13,0,61.68-.34,16.8-4.4,20.52-21.46,20.73q-23.88.3-47.77,0c-17.09-.19-21.59-4.7-21.8-22.24-.23-20-.34-40.11.07-60.15.19-9.82-3.42-13.82-13.5-13.6-20,.46-40.06.15-60.09-.06-18.38-.2-22.31-4.21-22.49-23-.15-16.45.07-32.9,0-49.35,0-12.76,6.25-18.87,18.92-18.87,20.55,0,41.12-.77,61.63.06,12.66.5,16-4.71,15.6-16.35-.66-19.51-.44-39.06-.13-58.59.27-16.4,5-21,21.33-21.16,16.94-.2,33.9.15,50.85-.08,12.94-.17,18.86,6.19,18.88,18.79,0,21.08.55,42.17,0,63.22-.31,10.92,3.78,14.79,14.39,14.12,10.24-.64,20.54-.14,30.81-.14Z"/></g></g></svg>